<svg xmlns="http://www.w3.org/2000/svg" version="1.1" xmlns:xlink="http://www.w3.org/1999/xlink" xmlns:svgjs="http://svgjs.com/svgjs" width="256" height="256"><svg xmlns="http://www.w3.org/2000/svg" width="256" height="256" viewBox="0 0 100 100"><rect width="100" height="100" rx="20" fill="#3abff8"></rect><path fill="#182730" d="M42.26 46.31L42.26 35.69L45.14 35.69Q47.03 32 49.23 29.80Q51.44 27.59 54.01 26.60Q56.57 25.61 59.63 25.61L59.63 25.61Q61.25 25.61 62.38 25.84Q63.50 26.06 64.22 26.42L64.22 26.42Q64.67 26.60 64.81 26.91Q64.94 27.23 64.94 27.77L64.94 27.77Q64.94 28.67 64.94 29.57Q64.94 30.47 64.94 31.28Q64.94 32.09 64.94 32.99Q64.94 33.89 64.94 34.79L64.94 34.79L63.59 34.79Q62.33 34.43 61.16 34.30Q59.99 34.16 58.46 34.16L58.46 34.16Q55.31 34.16 52.57 35.24Q49.82 36.32 47.30 38.98Q44.78 41.63 42.26 46.31L42.26 46.31ZM43.70 74.39L43.70 74.39Q42.44 74.39 41.18 74.39Q39.92 74.39 38.66 74.39Q37.40 74.39 36.05 74.39L36.05 74.39Q35.78 74.39 35.60 74.34Q35.42 74.30 35.29 74.17Q35.15 74.03 35.11 73.85Q35.06 73.67 35.06 73.40L35.06 73.40Q35.06 71.51 35.06 68.27Q35.06 65.03 35.06 60.94Q35.06 56.84 35.06 52.39Q35.06 47.93 35.06 43.56Q35.06 39.20 35.06 35.42L35.06 35.42Q35.06 32.54 35.06 30.25Q35.06 27.95 35.06 26.51L35.06 26.51Q36.50 26.51 37.81 26.51Q39.11 26.51 40.33 26.51Q41.54 26.51 42.71 26.51L42.71 26.51Q43.07 26.51 43.25 26.65Q43.43 26.78 43.57 26.96Q43.70 27.14 43.70 27.50L43.70 27.50Q43.70 29.84 43.70 33.80Q43.70 37.76 43.70 42.80Q43.70 47.84 43.70 53.38Q43.70 58.91 43.70 64.31Q43.70 69.71 43.70 74.39Z"></path></svg><style>@media (prefers-color-scheme: light) { :root { filter: none; } }
@media (prefers-color-scheme: dark) { :root { filter: none; } }
</style></svg>